<mxfile host="Electron" modified="2023-11-28T20:56:18.662Z" agent="Mozilla/5.0 (Windows NT 10.0; Win64; x64) AppleWebKit/537.36 (KHTML, like Gecko) draw.io/22.0.0 Chrome/114.0.5735.289 Electron/25.8.3 Safari/537.36" etag="C6mzW57glBn_ajfbY9m6" version="22.0.0" type="device">
  <diagram name="Page-1" id="BJpdSmk83CWqqSpLcJw9">
    <mxGraphModel dx="1050" dy="621" grid="1" gridSize="10" guides="1" tooltips="1" connect="1" arrows="1" fold="1" page="1" pageScale="1" pageWidth="827" pageHeight="1169" math="0" shadow="0">
      <root>
        <mxCell id="0" />
        <mxCell id="1" parent="0" />
        <mxCell id="dn3sOyw9YDt-OpIm-WNB-1" value="Worker A" style="rounded=0;whiteSpace=wrap;html=1;hachureGap=4;fontFamily=Architects Daughter;fontSource=https%3A%2F%2Ffonts.googleapis.com%2Fcss%3Ffamily%3DArchitects%2BDaughter;fontSize=15;fontStyle=1;horizontal=1;verticalAlign=top;fillColor=#dae8fc;strokeColor=#6c8ebf;sketch=1;curveFitting=1;jiggle=2;" parent="1" vertex="1">
          <mxGeometry x="225" y="110" width="130" height="280" as="geometry" />
        </mxCell>
        <mxCell id="dn3sOyw9YDt-OpIm-WNB-11" value="" style="sketch=0;outlineConnect=0;dashed=0;verticalLabelPosition=bottom;verticalAlign=top;align=center;html=1;fontSize=12;fontStyle=0;aspect=fixed;pointerEvents=1;shape=mxgraph.aws4.http_protocol;hachureGap=4;jiggle=2;curveFitting=1;fontFamily=Architects Daughter;fontSource=https%3A%2F%2Ffonts.googleapis.com%2Fcss%3Ffamily%3DArchitects%2BDaughter;fillColor=#0050ef;strokeColor=#001DBC;fontColor=#ffffff;" parent="1" vertex="1">
          <mxGeometry x="272.5" y="340" width="35" height="35" as="geometry" />
        </mxCell>
        <mxCell id="dn3sOyw9YDt-OpIm-WNB-13" style="edgeStyle=orthogonalEdgeStyle;rounded=0;sketch=1;hachureGap=4;jiggle=2;curveFitting=1;orthogonalLoop=1;jettySize=auto;html=1;exitX=0.5;exitY=0;exitDx=0;exitDy=0;fontFamily=Architects Daughter;fontSource=https%3A%2F%2Ffonts.googleapis.com%2Fcss%3Ffamily%3DArchitects%2BDaughter;fontSize=16;" parent="1" source="dn3sOyw9YDt-OpIm-WNB-12" target="dn3sOyw9YDt-OpIm-WNB-11" edge="1">
          <mxGeometry relative="1" as="geometry" />
        </mxCell>
        <mxCell id="dn3sOyw9YDt-OpIm-WNB-14" value="POST" style="edgeLabel;html=1;align=center;verticalAlign=middle;resizable=0;points=[];fontSize=15;fontFamily=Architects Daughter;fontStyle=1" parent="dn3sOyw9YDt-OpIm-WNB-13" vertex="1" connectable="0">
          <mxGeometry x="-0.088" y="-2" relative="1" as="geometry">
            <mxPoint as="offset" />
          </mxGeometry>
        </mxCell>
        <mxCell id="dn3sOyw9YDt-OpIm-WNB-12" value="&lt;font style=&quot;font-size: 15px;&quot;&gt;{ Connect-config }&lt;/font&gt;" style="text;html=1;strokeColor=#6c8ebf;fillColor=#dae8fc;align=left;verticalAlign=middle;whiteSpace=wrap;rounded=0;fontSize=15;fontFamily=Architects Daughter;fontStyle=1" parent="1" vertex="1">
          <mxGeometry x="220" y="430" width="140" height="30" as="geometry" />
        </mxCell>
        <mxCell id="dn3sOyw9YDt-OpIm-WNB-16" style="edgeStyle=orthogonalEdgeStyle;rounded=0;sketch=1;hachureGap=4;jiggle=2;curveFitting=1;orthogonalLoop=1;jettySize=auto;html=1;exitX=0.5;exitY=1;exitDx=0;exitDy=0;fontFamily=Architects Daughter;fontSource=https%3A%2F%2Ffonts.googleapis.com%2Fcss%3Ffamily%3DArchitects%2BDaughter;fontSize=16;startArrow=classic;startFill=1;endArrow=none;endFill=0;" parent="1" source="dn3sOyw9YDt-OpIm-WNB-15" target="dn3sOyw9YDt-OpIm-WNB-11" edge="1">
          <mxGeometry relative="1" as="geometry" />
        </mxCell>
        <mxCell id="dn3sOyw9YDt-OpIm-WNB-17" value="&lt;b&gt;&lt;font style=&quot;font-size: 15px;&quot;&gt;Creates&lt;/font&gt;&lt;/b&gt;" style="edgeLabel;html=1;align=center;verticalAlign=middle;resizable=0;points=[];fontSize=20;fontFamily=Architects Daughter;" parent="dn3sOyw9YDt-OpIm-WNB-16" vertex="1" connectable="0">
          <mxGeometry x="0.16" relative="1" as="geometry">
            <mxPoint as="offset" />
          </mxGeometry>
        </mxCell>
        <mxCell id="dn3sOyw9YDt-OpIm-WNB-15" value="&lt;b&gt;&lt;font style=&quot;font-size: 15px;&quot;&gt;Connector&lt;/font&gt;&lt;/b&gt;" style="rounded=0;whiteSpace=wrap;html=1;sketch=1;hachureGap=4;jiggle=2;curveFitting=1;fontFamily=Architects Daughter;fontSource=https%3A%2F%2Ffonts.googleapis.com%2Fcss%3Ffamily%3DArchitects%2BDaughter;fontSize=20;verticalAlign=top;fillColor=#d5e8d4;strokeColor=#82b366;" parent="1" vertex="1">
          <mxGeometry x="245" y="140" width="90" height="150" as="geometry" />
        </mxCell>
        <mxCell id="ruBYXZw6wakFjnu5-Mtl-7" style="edgeStyle=orthogonalEdgeStyle;rounded=0;sketch=1;hachureGap=4;jiggle=2;curveFitting=1;orthogonalLoop=1;jettySize=auto;html=1;exitX=0;exitY=0.5;exitDx=0;exitDy=0;fontFamily=Architects Daughter;fontSource=https%3A%2F%2Ffonts.googleapis.com%2Fcss%3Ffamily%3DArchitects%2BDaughter;fontSize=16;" edge="1" parent="1" source="dn3sOyw9YDt-OpIm-WNB-18">
          <mxGeometry relative="1" as="geometry">
            <mxPoint x="170" y="195" as="targetPoint" />
          </mxGeometry>
        </mxCell>
        <mxCell id="ruBYXZw6wakFjnu5-Mtl-8" value="Connect to" style="edgeLabel;html=1;align=center;verticalAlign=middle;resizable=0;points=[];fontSize=15;fontFamily=Architects Daughter;fontStyle=1;horizontal=0;" vertex="1" connectable="0" parent="ruBYXZw6wakFjnu5-Mtl-7">
          <mxGeometry x="0.2811" y="2" relative="1" as="geometry">
            <mxPoint as="offset" />
          </mxGeometry>
        </mxCell>
        <mxCell id="dn3sOyw9YDt-OpIm-WNB-18" value="&lt;b&gt;&lt;font style=&quot;font-size: 15px;&quot;&gt;Task&lt;/font&gt;&lt;/b&gt;" style="rounded=0;whiteSpace=wrap;html=1;sketch=1;hachureGap=4;jiggle=2;curveFitting=1;fontFamily=Architects Daughter;fontSource=https%3A%2F%2Ffonts.googleapis.com%2Fcss%3Ffamily%3DArchitects%2BDaughter;fontSize=20;fillColor=#f8cecc;strokeColor=#b85450;" parent="1" vertex="1">
          <mxGeometry x="261.25" y="180" width="65" height="30" as="geometry" />
        </mxCell>
        <mxCell id="dn3sOyw9YDt-OpIm-WNB-22" style="edgeStyle=orthogonalEdgeStyle;rounded=0;sketch=1;hachureGap=4;jiggle=2;curveFitting=1;orthogonalLoop=1;jettySize=auto;html=1;exitX=0.5;exitY=0;exitDx=0;exitDy=0;entryX=0.5;entryY=1;entryDx=0;entryDy=0;fontFamily=Architects Daughter;fontSource=https%3A%2F%2Ffonts.googleapis.com%2Fcss%3Ffamily%3DArchitects%2BDaughter;fontSize=16;" parent="1" source="dn3sOyw9YDt-OpIm-WNB-21" target="dn3sOyw9YDt-OpIm-WNB-18" edge="1">
          <mxGeometry relative="1" as="geometry" />
        </mxCell>
        <mxCell id="dn3sOyw9YDt-OpIm-WNB-23" value="&lt;b&gt;&lt;font style=&quot;font-size: 15px;&quot;&gt;Creates&lt;/font&gt;&lt;/b&gt;" style="edgeLabel;html=1;align=center;verticalAlign=middle;resizable=0;points=[];fontSize=20;fontFamily=Architects Daughter;" parent="dn3sOyw9YDt-OpIm-WNB-22" vertex="1" connectable="0">
          <mxGeometry x="0.0031" y="3" relative="1" as="geometry">
            <mxPoint as="offset" />
          </mxGeometry>
        </mxCell>
        <mxCell id="dn3sOyw9YDt-OpIm-WNB-21" value="&lt;b&gt;&lt;font style=&quot;font-size: 15px;&quot;&gt;Init()&lt;/font&gt;&lt;/b&gt;" style="text;html=1;strokeColor=#82b366;fillColor=#d5e8d4;align=center;verticalAlign=middle;whiteSpace=wrap;rounded=0;fontSize=20;fontFamily=Architects Daughter;" parent="1" vertex="1">
          <mxGeometry x="265" y="260" width="57.5" height="20" as="geometry" />
        </mxCell>
        <mxCell id="ruBYXZw6wakFjnu5-Mtl-3" value="" style="shape=image;verticalLabelPosition=bottom;labelBackgroundColor=default;verticalAlign=top;aspect=fixed;imageAspect=0;image=https://w7.pngwing.com/pngs/633/102/png-transparent-kafka-hd-logo-thumbnail.png;" vertex="1" parent="1">
          <mxGeometry x="415" y="122.74999999999997" width="90" height="146.5" as="geometry" />
        </mxCell>
        <mxCell id="ruBYXZw6wakFjnu5-Mtl-4" style="edgeStyle=orthogonalEdgeStyle;rounded=0;sketch=1;hachureGap=4;jiggle=2;curveFitting=1;orthogonalLoop=1;jettySize=auto;html=1;exitX=1;exitY=0.5;exitDx=0;exitDy=0;entryX=-0.067;entryY=0.488;entryDx=0;entryDy=0;entryPerimeter=0;fontFamily=Architects Daughter;fontSource=https%3A%2F%2Ffonts.googleapis.com%2Fcss%3Ffamily%3DArchitects%2BDaughter;fontSize=16;" edge="1" parent="1" source="dn3sOyw9YDt-OpIm-WNB-18" target="ruBYXZw6wakFjnu5-Mtl-3">
          <mxGeometry relative="1" as="geometry" />
        </mxCell>
        <mxCell id="ruBYXZw6wakFjnu5-Mtl-5" value="&lt;b&gt;&lt;font style=&quot;font-size: 15px;&quot;&gt;Connect to&lt;/font&gt;&lt;/b&gt;" style="edgeLabel;html=1;align=center;verticalAlign=middle;resizable=0;points=[];fontSize=20;fontFamily=Architects Daughter;horizontal=0;" vertex="1" connectable="0" parent="ruBYXZw6wakFjnu5-Mtl-4">
          <mxGeometry x="0.1386" y="1" relative="1" as="geometry">
            <mxPoint as="offset" />
          </mxGeometry>
        </mxCell>
        <mxCell id="ruBYXZw6wakFjnu5-Mtl-15" value="" style="shape=image;verticalLabelPosition=bottom;labelBackgroundColor=default;verticalAlign=top;aspect=fixed;imageAspect=0;image=https://uxwing.com/wp-content/themes/uxwing/download/banking-finance/sign-document-icon.png;" vertex="1" parent="1">
          <mxGeometry x="50" y="133.56" width="120" height="122.88" as="geometry" />
        </mxCell>
      </root>
    </mxGraphModel>
  </diagram>
</mxfile>
